<?xml version="1.0" encoding="utf-8"?>
<!-- Generator: Adobe Illustrator 25.0.0, SVG Export Plug-In . SVG Version: 6.00 Build 0)  -->
<svg version="1.1" id="Layer_1" xmlns="http://www.w3.org/2000/svg" xmlns:xlink="http://www.w3.org/1999/xlink" x="0px" y="0px"
	 viewBox="0 0 698.3 367.4" style="enable-background:new 0 0 698.3 367.4;" xml:space="preserve">
<style type="text/css">
	.st0{opacity:0.2;fill:#3A6BF5;enable-background:new    ;}
	.st1{fill:#CECECE;}
	.st2{fill:#FFFFFF;}
	.st3{fill:none;stroke:#1F3969;stroke-width:4;stroke-linecap:round;stroke-linejoin:round;stroke-miterlimit:10;}
	.st4{fill:#FF3E3E;}
	
		.st5{opacity:0.28;fill:#1F3969;stroke:#1F3969;stroke-width:4;stroke-linecap:round;stroke-linejoin:round;stroke-miterlimit:10;enable-background:new    ;}
	.st6{fill:#50B56F;}
	.st7{fill:#5F5AFF;}
	.st8{fill:#F6F9FD;}
	.st9{fill:#BFCFE2;}
	.st10{fill:#2D425E;}
	.st11{fill:#D0DDF0;}
	.st12{fill:#2AA1FF;}
	.st13{fill:none;stroke:#FFFFFF;stroke-width:2;stroke-linecap:round;stroke-linejoin:round;stroke-miterlimit:10;}
	.st14{fill:#1F3969;}
	.st15{fill:none;stroke:#FFFFFF;stroke-width:4;stroke-linecap:round;stroke-linejoin:round;stroke-miterlimit:10;}
	.st16{fill:none;stroke:#7BFFA0;stroke-width:4;stroke-linecap:round;stroke-linejoin:round;stroke-miterlimit:10;}
	.st17{fill:none;stroke:#9169FF;stroke-width:4;stroke-linecap:round;stroke-linejoin:round;stroke-miterlimit:10;}
	.st18{fill:none;stroke:#FFC47D;stroke-width:4;stroke-linecap:round;stroke-linejoin:round;stroke-miterlimit:10;}
	.st19{fill:none;stroke:#FF5757;stroke-width:4;stroke-linecap:round;stroke-linejoin:round;stroke-miterlimit:10;}
	.st20{fill:#FFA364;}
	.st21{fill:#FF5252;}
	.st22{fill:#6567C3;}
</style>
<path class="st0" d="M638.6,350H18.3c-5,0-9-4-9-9s4-9,9-9h620.3c5,0,9,4,9,9S643.6,350,638.6,350z"/>
<path class="st1" d="M135,257c-9.6,0-17.3-7.8-17.3-17.3s7.8-17.3,17.3-17.3h98v34.7h-98V257z"/>
<path class="st2" d="M238.7,263H135c-12.9,0-23.3-10.5-23.3-23.3c0-12.9,10.5-23.3,23.3-23.3h103.7L238.7,263L238.7,263z"/>
<path class="st3" d="M128.6,234.3H233 M128.6,244.9H233 M135,257c-9.6,0-17.3-7.8-17.3-17.3s7.8-17.3,17.3-17.3h98v34.7h-98V257z"/>
<path class="st4" d="M135,257c-9.6,0-17.3-7.8-17.3-17.3s7.8-17.3,17.3-17.3h99.7l4-6H135c-12.9,0-23.3,10.5-23.3,23.3
	c0,12.9,10.5,23.3,23.3,23.3h103.7l-4-6H135L135,257z"/>
<path class="st3" d="M135,257c-9.6,0-17.3-7.8-17.3-17.3s7.8-17.3,17.3-17.3h99.7l4-6H135c-12.9,0-23.3,10.5-23.3,23.3l0,0
	c0,12.9,10.5,23.3,23.3,23.3h103.7l-4-6H135L135,257z"/>
<path class="st5" d="M198,216.3h18.4V263H198V216.3z"/>
<path class="st6" d="M228,301.5H38.1c-3.7,0-6.8-3-6.8-6.8v-25c0-3.7,3-6.8,6.8-6.8H228c3.7,0,6.8,3,6.8,6.8v25
	C234.8,298.5,231.8,301.5,228,301.5L228,301.5z"/>
<path class="st2" d="M89.4,283.5h-2.6v5.5h-1.7v-13.3h4.3c3.1,0,4.6,1.7,4.6,3.9C94,281.6,92.7,283.5,89.4,283.5z M89.4,282
	c2,0,2.8-0.9,2.8-2.4s-0.8-2.5-2.8-2.5h-2.6v4.9H89.4z M98.8,275.7h1.9l3.3,6.7l3.3-6.7h1.9l-4.3,8.3v5h-1.7v-5L98.8,275.7z
	 M114,275.7h9v1.4h-3.6V289h-1.7v-11.9h-3.6L114,275.7L114,275.7z M137.5,283h-6.8v6H129v-13.3h1.7v5.8h6.8v-5.8h1.7V289h-1.7V283z
	 M152,289.1c-3.7,0-6.7-2.8-6.7-6.8s2.9-6.8,6.7-6.8c3.8,0,6.7,2.8,6.7,6.8C158.6,286.3,155.7,289.1,152,289.1z M152,287.6
	c2.8,0,4.9-2,4.9-5.3s-2.1-5.3-4.9-5.3s-4.9,2-4.9,5.3S149.2,287.6,152,287.6z M175.2,275.7V289h-1.7l-7-10.6V289h-1.7v-13.3h1.7
	l7,10.5v-10.5H175.2z"/>
<path class="st3" d="M228,301.5H38.1c-3.7,0-6.8-3-6.8-6.8v-25c0-3.7,3-6.8,6.8-6.8H228c3.7,0,6.8,3,6.8,6.8v25
	C234.8,298.5,231.8,301.5,228,301.5L228,301.5z"/>
<path class="st5" d="M228,263h-30v15c0,9.4,7.6,17.1,17.1,17.1h19.7c0-0.1,0-0.2,0-0.3v-25C234.8,266,231.8,263,228,263L228,263z"/>
<path class="st1" d="M281.5,309.3h-220c1.3,3.2,2,7.2,2,11.4s-0.7,8.1-2,11.4h219.9c-1.3-3.2-2-7.2-2-11.4
	C279.5,316.4,280.2,312.5,281.5,309.3z"/>
<path class="st7" d="M55.6,303.2h231.9v6H55.6V303.2z"/>
<path class="st3" d="M55.6,303.2h231.9v6H55.6V303.2z"/>
<path class="st8" d="M55.6,332h231.9v6H55.6V332z"/>
<path class="st7" d="M55.6,332h231.9v6H55.6V332z"/>
<path class="st3" d="M55.6,332h231.9v6H55.6V332z"/>
<path class="st9" d="M402.7,316.7l-3-33.7h-49.4l-3,33.7c-0.7,7.8-5.4,15.3-12.8,21.3v0.1h81V338C408.1,332,403.4,324.5,402.7,316.7
	L402.7,316.7z"/>
<path class="st5" d="M350.3,283l-1.8,20.2h53l-1.8-20.2H350.3z"/>
<path class="st3" d="M402.7,316.7l-3-33.7h-49.4l-3,33.7c-0.7,7.8-5.4,15.3-12.8,21.3v0.1h81V338C408.1,332,403.4,324.5,402.7,316.7
	L402.7,316.7z"/>
<path class="st2" d="M533,288H217c-6.6,0-12-5.4-12-12V70c0-6.6,5.4-12,12-12h316c6.6,0,12,5.4,12,12v206
	C545,282.7,539.6,288,533,288z"/>
<path class="st9" d="M533,288H217c-6.6,0-12-5.4-12-12V70c0-6.6,5.4-12,12-12h316c6.6,0,12,5.4,12,12v206
	C545,282.7,539.6,288,533,288z"/>
<path class="st3" d="M533,288H217c-6.6,0-12-5.4-12-12V70c0-6.6,5.4-12,12-12h316c6.6,0,12,5.4,12,12v206
	C545,282.7,539.6,288,533,288z"/>
<path class="st8" d="M528,75v174.6H222V75H528z"/>
<path class="st5" d="M233,58v138.6c0,4.4,3.6,8,8,8h189.1c4.4,0,8-3.6,8-8V58H233z"/>
<path class="st3" d="M528,75v174.6H222V75H528z"/>
<path class="st3" d="M361.6,268.7h26.9"/>
<path class="st10" d="M439.1,193.6H250c-4.4,0-8-3.6-8-8V37.4c0-4.4,3.6-8,8-8h189.1c4.4,0,8,3.6,8,8v148.3
	C447.1,190.1,443.5,193.6,439.1,193.6L439.1,193.6z"/>
<path class="st3" d="M447.1,48.8H242V37.3c0-4.4,3.6-8,8-8h189.1c4.4,0,8,3.6,8,8V48.8L447.1,48.8z"/>
<path class="st11" d="M447.1,52.6H242V37.3c0-4.4,3.6-8,8-8h189.1c4.4,0,8,3.6,8,8V52.6L447.1,52.6z"/>
<path class="st3" d="M447.1,52.6H242V37.3c0-4.4,3.6-8,8-8h189.1c4.4,0,8,3.6,8,8V52.6L447.1,52.6z"/>
<path class="st3" d="M447.1,52.6H242V37.3c0-4.4,3.6-8,8-8h189.1c4.4,0,8,3.6,8,8V52.6L447.1,52.6z"/>
<path class="st3" d="M439.1,193.6H250c-4.4,0-8-3.6-8-8V37.4c0-4.4,3.6-8,8-8h189.1c4.4,0,8,3.6,8,8v148.3
	C447.1,190.1,443.5,193.6,439.1,193.6L439.1,193.6z"/>
<path class="st5" d="M537.8,229h-116c-4.4,0-8-3.6-8-8V98.1c0-4.4,3.6-8,8-8h116c4.4,0,8,3.6,8,8V221
	C545.8,225.5,542.2,229,537.8,229L537.8,229z"/>
<path class="st12" d="M545.8,222h-116c-4.4,0-8-3.6-8-8V91.1c0-4.4,3.6-8,8-8h116c4.4,0,8,3.6,8,8V214
	C553.8,218.5,550.2,222,545.8,222L545.8,222z"/>
<path class="st3" d="M545.8,222h-116c-4.4,0-8-3.6-8-8V91.1c0-4.4,3.6-8,8-8h116c4.4,0,8,3.6,8,8V214
	C553.8,218.5,550.2,222,545.8,222L545.8,222z"/>
<path class="st3" d="M-150.9-316.3"/>
<path class="st13" d="M441.8,180.9h91.9 M441.8,191.7h91.9 M441.8,202.5h56"/>
<circle class="st14" cx="262.1" cy="41" r="4"/>
<circle class="st14" cx="276" cy="41" r="4"/>
<circle class="st14" cx="289.9" cy="41" r="4"/>
<path class="st15" d="M359.8,71.1h12.9"/>
<path class="st16" d="M293.9,71.1h56.4"/>
<path class="st17" d="M266.1,71.1h19.8 M291.9,169.6H335"/>
<path class="st16" d="M266.1,169.6H280"/>
<path class="st15" d="M350.2,83.4h8"/>
<path class="st17" d="M313.4,83.4h27.2"/>
<path class="st18" d="M276,83.4h27.7"/>
<path class="st15" d="M318.9,95.7h23.8"/>
<path class="st19" d="M288.9,95.7h22.5"/>
<path class="st15" d="M322.1,108h4.9"/>
<path class="st17" d="M302.3,108h11.1"/>
<path class="st16" d="M276,108h17.9"/>
<path class="st18" d="M314.4,120.4h31.9"/>
<path class="st19" d="M276,120.4h28.6"/>
<path class="st17" d="M351.3,132.7h17.3"/>
<path class="st19" d="M314.4,132.7h27.7"/>
<path class="st16" d="M288.9,132.7h15.7"/>
<path class="st15" d="M327,145h15.1"/>
<path class="st17" d="M288.9,145h27.7"/>
<path class="st15" d="M366.3,157.3h17.3"/>
<path class="st18" d="M313.4,157.3H357"/>
<path class="st15" d="M276,157.3h27.7"/>
<path class="st3" d="M64,316.2h215.5 M64,324.2h215.5 M281.5,309.3h-220c1.3,3.2,2,7.2,2,11.4s-0.7,8.1-2,11.4h219.9
	c-1.3-3.2-2-7.2-2-11.4C279.5,316.4,280.2,312.5,281.5,309.3z"/>
<path class="st20" d="M567.7,229l9.7-1.1l8.5,72.2l-9.7,1.1L567.7,229z"/>
<path class="st12" d="M567.7,229l9.7-1.1l0.9,7.3l-9.7,1.1L567.7,229z"/>
<path class="st3" d="M567.7,229l9.7-1.1l0.9,7.3l-9.7,1.1L567.7,229z"/>
<path class="st3" d="M567.7,229l9.7-1.1l8.5,72.2l-9.7,1.1L567.7,229z"/>
<path class="st21" d="M594.5,241.5l9.8,1.1l-7.9,72.2l-9.8-1.1L594.5,241.5z"/>
<path class="st3" d="M594.5,241.5l9.8,1.1l-7.9,72.2l-9.8-1.1L594.5,241.5z"/>
<path class="st10" d="M594.5,241.5l9.8,1.1l-0.8,7.3l-9.8-1.1L594.5,241.5z"/>
<path class="st3" d="M594.5,241.5l9.8,1.1l-0.8,7.3l-9.8-1.1L594.5,241.5z"/>
<path class="st22" d="M610.2,338.3h-39.3l-6.4-60.2h52L610.2,338.3z"/>
<path class="st22" d="M564.5,278.1l0.1,1.1h39.6l-6.3,59.1h12.2l6.4-60.2L564.5,278.1L564.5,278.1z"/>
<path class="st3" d="M610.2,338.3h-39.3l-6.4-60.2h52L610.2,338.3z"/>
</svg>
