<?xml version="1.0" standalone="no"?>
<!DOCTYPE svg PUBLIC "-//W3C//DTD SVG 20010904//EN"
 "http://www.w3.org/TR/2001/REC-SVG-20010904/DTD/svg10.dtd">
<svg version="1.0" xmlns="http://www.w3.org/2000/svg"
 width="260.000000pt" height="260.000000pt" viewBox="0 0 260.000000 260.000000"
 preserveAspectRatio="xMidYMid meet">
<metadata>
Created by potrace 1.14, written by Peter Selinger 2001-2017
</metadata>
<g transform="translate(0.000000,260.000000) scale(0.100000,-0.100000)"
fill="#000000" stroke="none">
<path d="M1132 2590 c-549 -78 -984 -480 -1103 -1020 -31 -138 -33 -389 -5
-520 55 -253 163 -462 333 -641 188 -197 409 -322 673 -380 138 -31 389 -33
520 -5 253 55 462 163 641 333 197 188 322 409 380 673 31 138 33 389 5 520
-55 253 -163 462 -333 641 -184 193 -399 317 -653 375 -118 28 -348 40 -458
24z m44 -1220 c84 -234 165 -455 179 -492 l25 -68 -130 0 -129 0 -27 85 -28
85 -187 0 -188 0 -27 -85 -28 -85 -129 0 c-70 0 -126 3 -124 8 3 4 82 219 175
477 94 259 173 478 177 488 7 16 21 17 147 15 l140 -3 154 -425z m932 48 c-3
-337 -6 -389 -21 -429 -26 -66 -79 -123 -145 -156 -51 -25 -67 -28 -162 -28
-92 0 -112 3 -161 26 -106 50 -166 135 -176 250 l-6 59 122 0 121 0 0 -25 c0
-33 25 -81 45 -89 40 -15 91 -6 116 20 l24 26 3 364 3 364 120 0 120 0 -3
-382z"/>
<path d="M821 1357 c-30 -89 -56 -168 -58 -174 -4 -10 23 -13 116 -13 67 0
121 2 121 4 0 11 -113 332 -119 338 -4 4 -31 -65 -60 -155z"/>
</g>
</svg>
